<?xml version="1.0" encoding="UTF-8"?>
<svg width="48px" height="48px" viewBox="0 0 48 48" version="1.1" xmlns="http://www.w3.org/2000/svg" xmlns:xlink="http://www.w3.org/1999/xlink">
    <title>Group 13</title>
    <g id="Page-1" stroke="none" stroke-width="1" fill="none" fill-rule="evenodd">
        <g id="Group-13">
            <circle id="Oval" fill="#F3F7FB" cx="24" cy="24" r="24"></circle>
            <g id="Group-10" transform="translate(11.000000, 13.000000)" fill-rule="nonzero">
                <g id="profile,user,avatar,people,1198771">
                    <path d="M9.61969714,22.9999641 C7.01173677,22.9996488 4.41348753,22.6987056 1.8821521,22.1037234 C0.776911864,21.8462805 2.32268241e-05,20.9065931 2.32268241e-05,19.8275237 C-0.0110311317,15.0140403 3.92506146,11.0210083 8.99105021,10.7064565 C14.057039,10.3919047 18.5087622,13.8641296 19.1598811,18.6378723 C19.1979844,18.92122 19.073759,19.2023174 18.8339993,19.375278 C18.5942396,19.5482386 18.2753709,19.5867855 17.9975079,19.4763984 C17.7196449,19.3660113 17.5250017,19.1234607 17.4868983,18.840113 C16.9019252,14.9384665 13.2446137,12.1233552 9.09712305,12.3823226 C4.94963238,12.64129 1.71328546,15.8868381 1.67302926,19.8275237 C1.66994913,20.1801105 1.92260627,20.4885739 2.28366795,20.5730386 C7.10222426,21.6993003 12.13717,21.6993003 16.9557263,20.5730386 C17.2456104,20.5022017 17.553333,20.5833749 17.7629779,20.7859811 C17.9726227,20.9885874 18.0523399,21.2818459 17.9721007,21.5552891 C17.8918615,21.8287322 17.6638561,22.0408175 17.373972,22.1116544 C14.8369017,22.7054751 12.2329273,23.0037673 9.61969714,22.9999641 L9.61969714,22.9999641 Z M9.61969714,9.51721137 C7.07879934,9.51721137 5.01899469,7.56425273 5.01899469,5.15515616 L5.01899469,4.36205521 C5.01899469,1.95295864 7.07879934,-8.8817842e-16 9.61969714,-8.8817842e-16 C12.1605949,-8.8817842e-16 14.2203996,1.95295864 14.2203996,4.36205521 L14.2203996,5.15515616 C14.2203996,7.56425273 12.1605949,9.51721137 9.61969714,9.51721137 Z M9.61969714,1.5862019 C8.00276217,1.5862019 6.6919774,2.82899376 6.6919774,4.36205521 L6.6919774,5.15515616 C6.6919774,6.68821762 8.00276217,7.93100948 9.61969714,7.93100948 C11.2366321,7.93100948 12.5474169,6.68821762 12.5474169,5.15515616 L12.5474169,4.36205521 C12.5474169,2.82899376 11.2366321,1.5862019 9.61969714,1.5862019 Z" id="Shape" fill="#258CE6"></path>
                    <path d="M4.21302072,17.5236932 C4.05407157,17.5239898 3.89718507,17.5065577 3.75492571,17.472793 C3.2538767,17.3526836 3.05129265,17.0621898 3.30192064,16.8232101 C3.89531622,16.2636383 4.76947287,15.7824292 5.84689293,15.4222441 C6.14421148,15.3222273 6.53099608,15.3053411 6.86154873,15.3779465 C7.19210137,15.4505519 7.41620324,15.6016184 7.44943733,15.7742406 C7.48267142,15.9468628 7.31998868,16.1148153 7.02267013,16.2148321 C6.22659372,16.4836429 5.58158394,16.8415705 5.14448058,17.2570733 C4.96792064,17.4240365 4.60549071,17.527778 4.21302072,17.5236932 Z" id="Path" fill="#73A5D1"></path>
                </g>
                <g id="profile,user,avatar,people,1198771" transform="translate(22.000000, 12.000000) scale(-1, 1) translate(-22.000000, -12.000000) translate(17.000000, 4.000000)" fill="#258CE6">
                    <path d="M1.42772145,15.8710982 C0.589362283,15.6841937 1.54056735e-05,15.0019769 1.54056735e-05,14.2185683 C-0.00831703613,10.7239604 2.97733186,7.82500354 6.82004222,7.59663769 C10.6627526,7.36827183 10.0465027,8.62531172 6.90050177,8.81332307 C3.75450084,9.00133443 1.29963084,11.3576151 1.26909526,14.2185683 C1.26675888,14.4745477 1.4584072,14.6984933 1.73228374,14.759815 C5.38730887,15.5774855 3.34781827,16.3030576 1.42772145,15.8710982 Z M6.50926819,6.32324051 C4.76315354,6.32324051 3.34764794,5.0256937 3.34764794,3.42508861 L3.34764794,2.8981519 C3.34764794,1.2975468 4.76315354,0 6.50926819,0 C8.25538284,0 9.67088844,1.2975468 9.67088844,2.8981519 L9.67088844,3.42508861 C9.67088844,5.0256937 8.25538284,6.32324051 6.50926819,6.32324051 Z M6.57125167,1.12537736 C5.40717523,1.12537736 4.46350483,1.95108896 4.46350483,2.96965584 L4.46350483,3.49659255 C4.46350483,4.51515943 5.40717523,5.34087103 6.57125167,5.34087103 C7.7353281,5.34087103 8.6789985,4.51515943 8.6789985,3.49659255 L8.6789985,2.96965584 C8.6789985,1.95108896 7.7353281,1.12537736 6.57125167,1.12537736 Z" id="Shape"></path>
                </g>
            </g>
        </g>
    </g>
</svg>