<?xml version="1.0" encoding="UTF-8"?>
<svg width="48px" height="48px" viewBox="0 0 48 48" version="1.1" xmlns="http://www.w3.org/2000/svg" xmlns:xlink="http://www.w3.org/1999/xlink">
    <title>Group 12</title>
    <g id="Page-1" stroke="none" stroke-width="1" fill="none" fill-rule="evenodd">
        <g id="Group-12">
            <circle id="Oval" fill="#F3F7FB" cx="24" cy="24" r="24"></circle>
            <g id="home-copy" transform="translate(12.000000, 13.000000)" fill="#258CE6" fill-rule="nonzero" stroke="#258CE6" stroke-width="0.3">
                <path d="M24.3323362,8.86174309 L12.6744498,0.164076191 C12.4496463,-0.00361491672 12.1442402,-0.00361491672 11.9195328,0.164076191 L0.261550218,8.86174309 C-0.0232008734,9.07422036 -0.085069869,9.48165199 0.123449782,9.77180753 C0.331969432,10.0619631 0.731860262,10.1249084 1.01656332,9.91252906 L12.2969432,1.49645204 L23.5773231,9.91248011 C23.6910699,9.99740249 23.823262,10.0383079 23.9543013,10.0383079 C24.1510524,10.0383079 24.3452096,9.94600854 24.4703886,9.77175859 C24.6789563,9.48165199 24.6170873,9.07422036 24.3323362,8.86174309 Z" id="Path"></path>
                <path d="M21.2432576,9.87324454 C20.890393,9.87324454 20.6042489,10.1593406 20.6042489,10.5122533 L20.6042489,20.6836026 L15.4922751,20.6836026 L15.4922751,15.1314367 C15.4922751,13.3695153 14.0588166,11.9361528 12.2969913,11.9361528 C10.5351659,11.9361528 9.10170742,13.3696114 9.10170742,15.1314367 L9.10170742,20.6836507 L3.98968559,20.6836507 L3.98968559,10.5123013 C3.98968559,10.1593886 3.70354148,9.87324454 3.35067686,9.87324454 C2.99781223,9.87324454 2.71166812,10.1593886 2.71166812,10.5123013 L2.71166812,21.3227074 C2.71166812,21.6756201 2.99781223,21.9617162 3.35067686,21.9617162 L9.74071616,21.9617162 C10.0767686,21.9617162 10.3517686,21.7020873 10.3772271,21.3724716 C10.3787642,21.3575328 10.3797249,21.3412009 10.3797249,21.3227074 L10.3797249,15.1314847 C10.3797249,14.0742838 11.2397904,13.2142183 12.2969913,13.2142183 C13.3541921,13.2142183 14.2142576,14.0743319 14.2142576,15.1314847 L14.2142576,21.3227074 C14.2142576,21.3411048 14.2152183,21.3571485 14.2167555,21.3718952 C14.2419258,21.7017511 14.5170218,21.9617162 14.8532664,21.9617162 L21.2433057,21.9617162 C21.5962183,21.9617162 21.8823144,21.6756201 21.8823144,21.3227074 L21.8823144,10.5123013 C21.8823144,10.1593406 21.5961703,9.87324454 21.2432576,9.87324454 Z" id="Path"></path>
            </g>
        </g>
    </g>
</svg>