<?xml version="1.0" encoding="UTF-8"?>
<svg width="48px" height="48px" viewBox="0 0 48 48" version="1.1" xmlns="http://www.w3.org/2000/svg" xmlns:xlink="http://www.w3.org/1999/xlink">
    <title>Group 11</title>
    <g id="Page-1" stroke="none" stroke-width="1" fill="none" fill-rule="evenodd">
        <g id="Group-11">
            <circle id="Oval" fill="#F3F7FB" cx="24" cy="24" r="24"></circle>
            <g id="profile,user,avatar,people,1198771" transform="translate(14.000000, 12.000000)" fill-rule="nonzero">
                <path d="M9.85543675,23.9999625 C7.18356589,23.9996335 4.52164415,23.6856058 1.92827599,23.0647549 C0.795950811,22.7961187 2.3796019e-05,21.8155754 2.3796019e-05,20.6895899 C-0.0113014598,15.6668246 4.02124873,11.5001826 9.21138424,11.1719546 C14.4015198,10.8437266 18.9623366,14.4669178 19.6294117,19.4482145 C19.6684488,19.7438817 19.5411791,20.0372008 19.2955439,20.2176814 C19.0499087,20.3981621 18.7232258,20.4383849 18.4385536,20.3231983 C18.1538813,20.2080118 17.9544681,19.9549155 17.915431,19.6592484 C17.3161226,15.587965 13.5691853,12.6504576 9.3200565,12.9206845 C5.07092772,13.1909113 1.75527111,16.5775702 1.7140284,20.6895899 C1.71087278,21.0575066 1.96972153,21.3793814 2.33963136,21.4675185 C7.27627087,22.6427481 12.4346026,22.6427481 17.3712422,21.4675185 C17.6682301,21.3936017 17.9834937,21.4783042 18.1982761,21.6897194 C18.4130586,21.9011347 18.4947293,22.2071436 18.4125237,22.4924756 C18.3303182,22.7778076 18.0967253,22.9991139 17.7997373,23.0730307 C15.2004937,23.6926696 12.5327065,24.0039311 9.85543675,23.9999625 L9.85543675,23.9999625 Z M9.85543675,9.93100317 C7.25227189,9.93100317 5.14198981,7.89313329 5.14198981,5.37929338 L5.14198981,4.55170979 C5.14198981,2.03786989 7.25227189,-2.66453526e-15 9.85543675,-2.66453526e-15 C12.4586016,-2.66453526e-15 14.5688837,2.03786989 14.5688837,4.55170979 L14.5688837,5.37929338 C14.5688837,7.89313329 12.4586016,9.93100317 9.85543675,9.93100317 Z M9.85543675,1.6551672 C8.19887729,1.6551672 6.85597052,2.95199349 6.85597052,4.55170979 L6.85597052,5.37929338 C6.85597052,6.97900969 8.19887729,8.27583598 9.85543675,8.27583598 C11.5119962,8.27583598 12.854903,6.97900969 12.854903,5.37929338 L12.854903,4.55170979 C12.854903,2.95199349 11.5119962,1.6551672 9.85543675,1.6551672 Z" id="Shape" fill="#258CE6"></path>
                <path d="M5.14628944,18.5452807 C5.02415618,18.5457238 4.90360781,18.5196791 4.79429865,18.4692322 C4.40930288,18.2897802 4.25364147,17.8557619 4.44621886,17.4987092 C4.90217183,16.662669 5.57385583,15.9437084 6.40172326,15.4055662 C6.63017672,15.256134 6.92737406,15.2309049 7.18136392,15.3393826 C7.43535378,15.4478602 7.60754905,15.6735642 7.63308544,15.9314741 C7.65862184,16.1893839 7.53361976,16.440317 7.3051663,16.5897492 C6.69347755,16.9913717 6.19786528,17.5261409 5.86200405,18.1469317 C5.72633902,18.3963866 5.44785531,18.5513837 5.14628944,18.5452807 Z" id="Path" fill="#73A5D1"></path>
            </g>
        </g>
    </g>
</svg>