<?xml version="1.0" encoding="UTF-8"?>
<svg width="80px" height="80px" viewBox="0 0 80 80" version="1.1" xmlns="http://www.w3.org/2000/svg" xmlns:xlink="http://www.w3.org/1999/xlink">
    <title>Group 17</title>
    <g id="Page-1" stroke="none" stroke-width="1" fill="none" fill-rule="evenodd">
        <g id="Group-7" transform="translate(-272.000000, -710.000000)">
            <g id="Group-17" transform="translate(272.000000, 710.000000)">
                <g id="writing-copy-3" fill="#44B41B">
                    <circle id="Oval" cx="40" cy="40" r="40"></circle>
                </g>
                <g id="numbers" transform="translate(17.000000, 17.000000)" fill="#FFFFFF" fill-rule="nonzero">
                    <path d="M31.1800938,0.0014375 L14.8199063,0.0014375 C13.38025,0.0014375 12.2086875,1.173 12.2086875,2.61265625 L12.2086875,18.9728438 C12.2086875,20.4125 13.38025,21.5840625 14.8199063,21.5840625 L31.1800938,21.5840625 C32.61975,21.5840625 33.7913125,20.4125 33.7913125,18.9728438 L33.7913125,2.61265625 C33.7913125,1.173 32.61975,0.0014375 31.1800938,0.0014375 Z M32.3538125,18.9728438 C32.3538125,19.6204375 31.8269688,20.1465625 31.1800938,20.1465625 L14.8199063,20.1465625 C14.1730313,20.1465625 13.6461875,19.6197188 13.6461875,18.9728438 L13.6461875,2.61265625 C13.6461875,1.9650625 14.1730313,1.4389375 14.8199063,1.4389375 L31.1800938,1.4389375 C31.8276875,1.4389375 32.3538125,1.96578125 32.3538125,2.61265625 L32.3538125,18.9728438 Z" id="Shape"></path>
                    <path d="M18.9714063,24.4159375 L2.61121875,24.4159375 C1.1715625,24.4159375 0,25.5875 0,27.0271562 L0,43.3873437 C0,44.827 1.1715625,45.9985625 2.61121875,45.9985625 L18.9714063,45.9985625 C20.4110625,45.9985625 21.582625,44.827 21.582625,43.3880625 L21.582625,27.0264375 C21.5811875,25.5867812 20.4103437,24.4159375 18.9714063,24.4159375 Z M20.145125,43.3880625 C20.145125,44.0356563 19.6182813,44.5617813 18.9714063,44.5617813 L2.61121875,44.5617813 C1.963625,44.5617813 1.4375,44.0349375 1.4375,43.3880625 L1.4375,27.0271562 C1.4375,26.3795625 1.963625,25.8534375 2.61121875,25.8534375 L18.9714063,25.8534375 C19.6182813,25.8534375 20.145125,26.3802812 20.145125,27.0271562 L20.145125,43.3880625 Z" id="Shape"></path>
                    <path d="M43.3887812,24.4159375 L27.0285937,24.4159375 C25.5882187,24.4159375 24.4166562,25.5875 24.4166562,27.0271562 L24.4166562,43.3873437 C24.4166562,44.827 25.5882187,45.9985625 27.0285937,45.9985625 L43.3887812,45.9985625 C44.8284375,45.9985625 46,44.827 46,43.3880625 L46,27.0271562 C46,25.5875 44.8284375,24.4159375 43.3887812,24.4159375 Z M44.5625,43.3880625 C44.5625,44.0356563 44.0356562,44.5617813 43.3887812,44.5617813 L27.0285937,44.5617813 C26.381,44.5617813 25.8541562,44.0349375 25.8541562,43.3880625 L25.8541562,27.0271562 C25.8541562,26.3795625 26.3817187,25.8534375 27.0285937,25.8534375 L43.3887812,25.8534375 C44.036375,25.8534375 44.5625,26.3802812 44.5625,27.0271562 L44.5625,43.3880625 Z" id="Shape"></path>
                    <polygon id="Path" points="20.6849063 5.07365625 20.6841875 7.25003125 22.8605625 7.25003125 22.8605625 16.5118437 25.3150937 16.5118437 25.3150937 5.07365625"></polygon>
                    <path d="M10.4067812,38.7665 L12.4681562,36.6224688 C13.2760312,35.78225 13.82875,35.09225 14.1299062,34.5531875 C14.429625,34.0126875 14.5798437,33.44775 14.5798437,32.8590938 C14.5798437,31.7788125 14.205375,30.9256563 13.4585937,30.2981875 C12.7110937,29.6707188 11.8428437,29.356625 10.856,29.356625 C9.86915625,29.356625 9.05553125,29.5700937 8.418,29.994875 C7.77975,30.4210938 7.19396875,31.0478438 6.6585,31.8765625 L8.70478125,33.088375 C9.3495,32.0627188 10.0315937,31.55025 10.7503437,31.55025 C11.1427812,31.55025 11.4655,31.6781875 11.715625,31.9340625 C11.9671875,32.1906562 12.09225,32.5105 12.09225,32.8914375 C12.09225,33.2738125 11.9470625,33.669125 11.658125,34.0780938 C11.3691875,34.4870625 10.8869062,35.0354687 10.2105625,35.7225938 L6.85615625,39.1596562 L6.85615625,41.0571562 L14.924125,41.0571562 L14.924125,38.7665 L10.4067812,38.7665 L10.4067812,38.7665 Z" id="Path"></path>
                    <path d="M38.5472812,35.01175 C38.044875,34.3950625 37.3369062,34.01125 36.4205,33.8581563 L38.76075,31.190875 L38.76075,29.4234688 L31.75725,29.4234688 L31.75725,31.599125 L35.3409375,31.5998438 L33.1473125,34.1844688 L33.1473125,36.0675938 C33.8028125,35.8591563 34.31025,35.7556563 34.669625,35.7556563 C35.3466875,35.7556563 35.8749687,35.8958125 36.2573437,36.1725313 C36.6382812,36.4506875 36.8301875,36.8273125 36.8301875,37.3016875 C36.8301875,37.7775 36.6634375,38.13975 36.3306562,38.3913125 C35.997875,38.6414375 35.57525,38.7665 35.0627812,38.7665 C34.2117812,38.7665 33.2465,38.3848438 32.1662187,37.6215313 L31.1182812,39.6512813 C32.4163437,40.5454062 33.6993125,40.9924688 34.9643125,40.9924688 C36.2293125,40.9924688 37.2693437,40.6517813 38.0815312,39.9696875 C38.8937187,39.2883125 39.2998125,38.3474688 39.2998125,37.147875 C39.2998125,36.3392812 39.0496875,35.6284375 38.5472812,35.01175 Z" id="Path"></path>
                </g>
            </g>
        </g>
    </g>
</svg>