<?xml version="1.0" encoding="UTF-8"?>
<svg width="80px" height="80px" viewBox="0 0 80 80" version="1.1" xmlns="http://www.w3.org/2000/svg" xmlns:xlink="http://www.w3.org/1999/xlink">
    <title>Group 16</title>
    <g id="Page-1" stroke="none" stroke-width="1" fill="none" fill-rule="evenodd">
        <g id="Group-7" transform="translate(-272.000000, -710.000000)">
            <g id="Group-16" transform="translate(272.000000, 710.000000)">
                <g id="writing" fill="#2AAE98">
                    <circle id="Oval" cx="40" cy="40" r="40"></circle>
                </g>
                <g id="reading-book" transform="translate(21.000000, 17.000000)" fill="#FFFFFF" fill-rule="nonzero">
                    <path d="M38.3333333,29.6491034 C38.3333333,27.4796875 36.7995543,25.6646233 34.7674419,25.2471999 L34.7674419,20.3949893 C34.7674419,19.9529482 34.5524186,19.5391186 34.191907,19.2872809 C33.8313953,19.0354432 33.3712171,18.9777622 32.9606938,19.1331055 L30.4084961,20.0976897 C28.7325271,18.3416542 26.6953333,17.0190346 24.462907,16.2070984 C26.6566434,14.5688507 28.0813953,11.941401 28.0813953,8.9845768 C28.0813953,4.03039131 24.0823372,0 19.1666667,0 C14.2509961,0 10.251938,4.03039131 10.251938,8.9845768 C10.251938,11.941401 11.6766899,14.5688507 13.8704264,16.2070984 C11.6379109,17.0191245 9.6008062,18.341744 7.92483721,20.0976897 L5.37263953,19.1331055 C4.96202713,18.9777622 4.50184884,19.0354432 4.14142636,19.2872809 C3.78091473,19.5391186 3.56589147,19.9529482 3.56589147,20.3949893 L3.56589147,25.2471999 C1.53377907,25.6646233 0,27.4795977 0,29.6491034 C0,31.8186092 1.53377907,33.6335836 3.56589147,34.051007 L3.56589147,39.2626006 C3.56589147,39.8244062 3.9116938,40.327273 4.43356202,40.5244844 L18.6971279,45.9152305 C18.9979109,46.0282565 19.3353333,46.0282565 19.6361163,45.9152305 L33.8996822,40.5244844 C34.4215504,40.327273 34.7673527,39.8244062 34.7673527,39.2626006 L34.7673527,34.051007 C36.7995543,33.6335836 38.3333333,31.8185194 38.3333333,29.6491034 Z M12.2517285,8.75590197 C12.2517285,4.97277438 15.3537697,1.89495241 19.1666667,1.89495241 C22.9795636,1.89495241 26.0816049,4.97277438 26.0816049,8.75590197 C26.0816049,12.5390296 22.9795636,15.6168515 19.1666667,15.6168515 C15.3537697,15.6168515 12.2517285,12.5390296 12.2517285,8.75590197 Z M19.1666667,17.5118039 C22.638262,17.5118039 25.9540736,18.7566742 28.5412484,20.980798 L19.1666667,24.4688068 L9.79208496,20.980798 C12.3793585,18.7566742 15.6951701,17.5118039 19.1666667,17.5118039 L19.1666667,17.5118039 Z M0.891472868,30.2535674 C0.891472868,29.1726738 1.77777038,28.2932961 2.8671695,28.2932961 L3.85501781,28.2932961 L3.85501781,32.2138387 L2.8671695,32.2138387 C1.77777038,32.2138387 0.891472868,31.334461 0.891472868,30.2535674 Z M4.84286612,34.1720495 C6.11446487,33.9470917 7.07432835,32.9689175 7.07432835,31.799776 L7.07432835,26.9578086 C7.07432835,25.7886672 6.11446487,24.8104929 4.84286612,24.5855351 L4.84286612,21.5004272 L19.3473706,26.2213454 L19.1666667,44.2707884 L4.84286612,38.7340544 L4.84286612,34.1720495 Z M20.6484391,44.090862 L20.6484391,26.2213662 L33.4904672,21.5004272 L33.4904672,24.5855487 C32.3646165,24.8105075 31.5147706,25.7886861 31.5147706,26.9578327 L31.5147706,31.7998215 C31.5147706,32.9689681 32.3646165,33.9471466 33.4904672,34.1721054 L33.4904672,38.7340336 L20.6484391,44.090862 Z M35.4661638,32.2138387 L34.4783155,32.2138387 L34.4783155,28.2932961 L35.4661638,28.2932961 C36.555563,28.2932961 37.4418605,29.1726738 37.4418605,30.2535674 C37.4418605,31.334461 36.5556617,32.2138387 35.4661638,32.2138387 Z" id="Shape"></path>
                </g>
            </g>
        </g>
    </g>
</svg>