<?xml version="1.0" encoding="UTF-8"?>
<svg width="80px" height="80px" viewBox="0 0 80 80" version="1.1" xmlns="http://www.w3.org/2000/svg" xmlns:xlink="http://www.w3.org/1999/xlink">
    <title>bar-chart</title>
    <g id="Page-1" stroke="none" stroke-width="1" fill="none" fill-rule="evenodd">
        <g id="bar-chart">
            <circle id="Oval" fill="#EA966B" cx="40" cy="40" r="40"></circle>
            <g id="self-awareness" transform="translate(14.000000, 16.000000)" fill="#FFFFFF" fill-rule="nonzero">
                <g id="XMLID_98_">
                    <path d="M2.07627119,19.3252055 C2.07627119,16.3859322 2.79621822,13.6132797 4.21597246,11.0843814 C4.49668432,10.5844153 4.31885169,9.9515678 3.81898941,9.67095975 C3.31902331,9.39045551 2.68617585,9.56787288 2.4055678,10.0679428 C0.831858051,12.8710127 3.68819852e-16,16.0722076 3.68819852e-16,19.3252055 C3.68819852e-16,23.1499047 0.964012712,27.2827225 2.64475424,30.6639301 C4.30670551,34.0071419 4.75092373,37.8013199 3.89570763,41.3477987 L2.36518432,47.6951674 C2.23084958,48.2525424 2.57374576,48.8133432 3.13112076,48.947678 C3.21282203,48.9674025 3.29473093,48.9768496 3.37529025,48.9768496 C3.84390466,48.9768496 4.26902119,48.6574153 4.38373517,48.1818453 L5.91425847,41.8344767 C6.88366949,37.8144004 6.38287288,33.5191144 4.5041589,29.7397818 C2.96107415,26.635964 2.07627119,22.8400212 2.07627119,19.3252055 Z" id="XMLID_99_"></path>
                    <path d="M52.593714,28.518 L28.4353644,15.9430636 L52.593714,3.36812712 C53.1021928,3.10340254 53.2999576,2.47657627 53.0352331,1.96799364 C52.7705085,1.45951483 52.1436822,1.26154237 51.6350996,1.52647458 L36.404197,9.45440466 C32.8769237,3.61489195 26.6479025,0.0232542373 19.9312691,0.0232542373 C16.1183008,0.0232542373 12.4110148,1.06242797 9.21013136,3.02855297 C8.72158475,3.32867797 8.56877119,3.96796186 8.86889619,4.45650847 C9.16891737,4.94495127 9.80830508,5.09786864 10.2967479,4.79774364 C13.1707225,3.03260169 16.5022034,2.09952542 19.9313729,2.09952542 C25.8746992,2.09952542 31.3945699,5.26303602 34.5587034,10.4150953 L26.9186483,14.3918814 C26.6557924,12.7503814 25.8925551,11.2333538 24.7044089,10.0270403 C23.212089,8.51188136 21.2201144,7.65863771 19.0954661,7.62427542 C16.9391547,7.588875 14.8999449,8.39156144 13.356964,9.88263559 C11.8133602,11.3744364 10.9429873,13.3840593 10.9063411,15.5414089 C10.9063411,15.5473263 10.9062373,15.5531398 10.9062373,15.5590572 L10.9062373,25.0699364 C10.9062373,25.530661 11.2097881,25.9361568 11.6518263,26.0660275 L20.4618602,28.6542034 C20.5579915,28.6824407 20.6565106,28.6962479 20.754303,28.6962479 C20.9760487,28.6962479 21.1947839,28.6251356 21.3764576,28.4892436 C21.6382754,28.2932436 21.7925424,27.9852288 21.7925424,27.6581123 L21.7925424,25.0994195 L23.1570678,25.0994195 C24.8603369,25.0994195 26.2461441,23.7136123 26.2461441,22.0103432 L26.2461441,21.0357415 L27.3087797,21.0357415 C27.6381801,21.0357415 27.9479597,20.8795021 28.1436483,20.6145699 C28.3394407,20.3496377 28.3978877,20.007572 28.3012373,19.6928093 L27.7605763,17.9322352 L38.2843644,23.4100614 L40.3209788,30.0409449 L36.1623114,30.0409449 C35.589053,30.0409449 35.1241758,30.5057182 35.1241758,31.0790805 L35.1241758,36.4089725 C35.1241758,38.8312542 33.1534831,40.801947 30.7312013,40.801947 L24.3687797,40.801947 C23.8643496,40.801947 23.4327966,41.1646716 23.3461123,41.6615233 L22.2816081,47.7597394 C22.1829852,48.324589 22.5608665,48.8623432 23.1257161,48.9609661 C23.1861356,48.9715551 23.2461398,48.9765381 23.3054174,48.9765381 C23.8005042,48.9765381 24.2388051,48.6211843 24.326839,48.1167542 L25.2413326,42.8782182 L30.7312013,42.8782182 C34.298339,42.8782182 37.200447,39.9761102 37.200447,36.4089725 L37.200447,32.1172161 L41.7257839,32.1172161 C42.0551843,32.1172161 42.364964,31.9609767 42.5606525,31.6960445 C42.7564449,31.4312161 42.8148919,31.0891504 42.7182415,30.7742839 L40.8697373,24.7557966 L51.6353072,30.3595487 C51.788536,30.4392775 51.9523538,30.4770657 52.1136801,30.4770657 C52.488447,30.4770657 52.8504449,30.2734873 53.0354407,29.9180297 C53.2999576,29.4096547 53.1022966,28.7827246 52.593714,28.518 L52.593714,28.518 Z M25.2078008,18.959678 C24.6345424,18.959678 24.1696653,19.4244513 24.1696653,19.9978136 L24.1696653,22.0105508 C24.1696653,22.568964 23.7152733,23.0233559 23.1568602,23.0233559 L20.7541992,23.0233559 C20.1809407,23.0233559 19.7160636,23.4881292 19.7160636,24.0614915 L19.7160636,26.2713708 L12.9823008,24.2932034 L12.9823008,15.5685042 C13.0428242,12.278964 15.7633623,9.64988559 19.0619343,9.70054661 C22.3057966,9.75297246 24.9448411,12.4360339 24.9448411,15.6814534 C24.9448411,15.7847479 24.9602055,15.8874195 24.9905191,15.98625 L25.9037669,18.9597818 L25.2078008,18.9597818 L25.2078008,18.959678 Z" id="XMLID_111_"></path>
                </g>
                <g id="XMLID_1531_" transform="translate(4.983051, 5.709746)">
                    <path d="M1.12430085,2.16243644 C0.850129237,2.16243644 0.583432203,2.05135593 0.390338983,1.85826271 C0.197245763,1.66413136 0.0861652542,1.39733051 0.0861652542,1.12430085 C0.0861652542,0.850233051 0.197141949,0.583432203 0.390338983,0.389300847 C0.583432203,0.196207627 0.850233051,0.0851271186 1.12430085,0.0851271186 C1.39733051,0.0851271186 1.66516949,0.196207627 1.8581589,0.389300847 C2.05125212,0.583432203 2.16243644,0.850233051 2.16243644,1.12430085 C2.16243644,1.39733051 2.05135593,1.66413136 1.8581589,1.85826271 C1.66516949,2.05125212 1.39733051,2.16243644 1.12430085,2.16243644 L1.12430085,2.16243644 Z" id="XMLID_122_"></path>
                </g>
            </g>
        </g>
    </g>
</svg>