<?xml version="1.0" encoding="UTF-8"?>
<svg width="80px" height="80px" viewBox="0 0 80 80" version="1.1" xmlns="http://www.w3.org/2000/svg" xmlns:xlink="http://www.w3.org/1999/xlink">
    <title>bar-chart</title>
    <g id="Page-1" stroke="none" stroke-width="1" fill="none" fill-rule="evenodd">
        <g id="bar-chart">
            <circle id="Oval" fill="#7682D5" cx="40" cy="40" r="40"></circle>
            <g id="user-3" transform="translate(13.000000, 13.000000)" fill="#FFFFFF" fill-rule="nonzero">
                <path d="M43.7529727,27.7910156 L46.1047148,27.7910156 C46.4726953,29.6119336 48.0851016,30.9872461 50.0128594,30.9872461 C52.2113555,30.9872461 54,29.1986016 54,27 C54,24.8013984 52.2113555,23.0127539 50.0127539,23.0127539 C48.0849961,23.0127539 46.4725898,24.3880664 46.1046094,26.2089844 L43.7528672,26.2089844 C43.5648164,22.1797617 41.9490352,18.5174648 39.4001719,15.7184297 L43.6362187,11.4824883 C44.4700547,12.0896719 45.4953164,12.4492148 46.6034766,12.4492148 C49.3895391,12.4492148 51.6560625,10.1825859 51.6560625,7.39652344 C51.6560625,4.61046094 49.3895391,2.3439375 46.6034766,2.3439375 C43.8174141,2.3439375 41.5508906,4.61056641 41.5508906,7.39652344 C41.5508906,8.50468359 41.9103281,9.52994531 42.5176172,10.3637812 L38.2815703,14.5997227 C35.4825352,12.0509648 31.8202383,10.4350781 27.7910156,10.2471328 L27.7910156,7.89539062 C29.6119336,7.52741016 30.9872461,5.91500391 30.9872461,3.98724609 C30.9872461,1.78864453 29.1986016,0 27,0 C24.8013984,0 23.0127539,1.78864453 23.0127539,3.98724609 C23.0127539,5.91500391 24.3880664,7.52741016 26.2089844,7.89539062 L26.2089844,10.2470273 C22.1797617,10.4350781 18.5174648,12.0508594 15.7184297,14.5996172 L11.4826992,10.3639922 C12.0899883,9.53005078 12.4495313,8.50468359 12.4495313,7.39652344 C12.4495313,5.71408594 11.6162227,4.14734766 10.2204492,3.20551172 C9.85805859,2.96124609 9.36646875,3.05658984 9.12230859,3.41876953 C8.8779375,3.78094922 8.97338672,4.27253906 9.33546094,4.51691016 C10.2948047,5.16417187 10.8673945,6.24069141 10.8673945,7.39652344 C10.8673945,9.31035937 9.31025391,10.8675 7.39641797,10.8675 C5.48258203,10.8675 3.92554688,9.31035937 3.92554688,7.39652344 C3.92554688,5.85098437 4.96283203,4.47725391 6.44804297,4.05590625 C6.86833594,3.93662109 7.11239063,3.49924219 6.99310547,3.07894922 C6.87382031,2.65865625 6.43623047,2.41491797 6.01625391,2.53388672 C3.85372266,3.14750391 2.34351563,5.14708594 2.34351563,7.39652344 C2.34351563,10.1827969 4.61025,12.4495312 7.39652344,12.4495312 C8.50478906,12.4495312 9.53015625,12.0899883 10.3639922,11.4826992 L14.5997227,15.7183242 C12.0508594,18.5173594 10.4350781,22.1796562 10.2470273,26.2088789 L7.89539063,26.2088789 C7.52741016,24.3879609 5.91500391,23.0126484 3.98724609,23.0126484 C1.78864453,23.0127539 0,24.8013984 0,27 C0,29.1986016 1.78864453,30.9872461 3.98724609,30.9872461 C5.91500391,30.9872461 7.52741016,29.6119336 7.89539063,27.7910156 L10.2471328,27.7910156 C10.4351836,31.8202383 12.0509648,35.4825352 14.5998281,38.2815703 L10.3637813,42.5175117 C9.52994531,41.9103281 8.50468359,41.5507852 7.39652344,41.5507852 C4.61046094,41.5507852 2.3439375,43.8174141 2.3439375,46.6034766 C2.3439375,49.3895391 4.61046094,51.6560625 7.39652344,51.6560625 C10.1825859,51.6560625 12.4491094,49.3894336 12.4491094,46.6034766 C12.4491094,45.4953164 12.0896719,44.4700547 11.4823828,43.6362187 L15.7184297,39.4002773 C18.5174648,41.9490352 22.1797617,43.5649219 26.2089844,43.7528672 L26.2089844,46.1045039 C24.3880664,46.4724844 23.0127539,48.0848906 23.0127539,50.0126484 C23.0127539,52.2113555 24.8013984,54 27,54 C29.1986016,54 30.9872461,52.2113555 30.9872461,50.0127539 C30.9872461,48.0849961 29.6119336,46.4725898 27.7910156,46.1046094 L27.7910156,43.7529727 C31.8202383,43.5649219 35.4825352,41.9491406 38.2815703,39.4003828 L42.5173008,43.6360078 C41.9100117,44.4699492 41.5504688,45.4953164 41.5504688,46.6034766 C41.5504688,49.3896445 43.8172031,51.6564844 46.6034766,51.6564844 C49.38975,51.6564844 51.6564844,49.38975 51.6564844,46.6034766 C51.6564844,46.0565156 51.5693672,45.5178867 51.3975586,45.00225 C51.2592891,44.5878633 50.8111523,44.3638477 50.397082,44.5019062 C49.9825898,44.6400703 49.7585742,45.0879961 49.8967383,45.5024883 C50.0146523,45.8563359 50.0745586,46.2268477 50.0745586,46.6033711 C50.0745586,48.517207 48.517418,50.0743477 46.603582,50.0743477 C44.6897461,50.0743477 43.1326055,48.5173125 43.1326055,46.6033711 C43.1326055,44.6894297 44.6897461,43.1323945 46.603582,43.1323945 C47.0415937,43.1323945 47.4687422,43.2129727 47.8731094,43.3719141 C48.2792695,43.5316992 48.7387969,43.331625 48.8986875,42.925043 C49.0584727,42.5184609 48.8583984,42.0593555 48.4518164,41.8994648 C47.8623516,41.6678555 47.2406133,41.5503633 46.6036875,41.5503633 C45.4954219,41.5503633 44.4700547,41.9099062 43.6362187,42.5171953 L39.4004883,38.2815703 C41.9490352,35.4825352 43.5649219,31.8202383 43.7529727,27.7910156 L43.7529727,27.7910156 Z M50.0127539,24.5947852 C51.3390234,24.5947852 52.4179687,25.6737305 52.4179687,27 C52.4179687,28.3262695 51.3390234,29.4052148 50.0127539,29.4052148 C48.6864844,29.4052148 47.6075391,28.3262695 47.6075391,27 C47.6075391,25.6737305 48.6865898,24.5947852 50.0127539,24.5947852 Z M46.6034766,3.92596875 C48.517207,3.92596875 50.0740312,5.48289844 50.0740312,7.39652344 C50.0740312,9.31025391 48.5171016,10.8671836 46.6034766,10.8671836 C44.6898516,10.8671836 43.1329219,9.31025391 43.1329219,7.39652344 C43.1329219,5.48279297 44.6898516,3.92596875 46.6034766,3.92596875 Z M24.5947852,3.98724609 C24.5947852,2.66097656 25.6738359,1.58203125 27,1.58203125 C28.3261641,1.58203125 29.4052148,2.66097656 29.4052148,3.98724609 C29.4052148,5.31351563 28.3261641,6.39246094 27,6.39246094 C25.6738359,6.39246094 24.5947852,5.31341016 24.5947852,3.98724609 Z M3.98724609,29.4052148 C2.66097656,29.4052148 1.58203125,28.3262695 1.58203125,27 C1.58203125,25.6737305 2.66097656,24.5947852 3.98724609,24.5947852 C5.31351563,24.5947852 6.39235547,25.6737305 6.39235547,27 C6.39235547,28.3262695 5.31341016,29.4052148 3.98724609,29.4052148 Z M27,11.8099687 C35.3758008,11.8099687 42.1900313,18.6241992 42.1900313,27 C42.1900313,35.3758008 35.3758008,42.1900313 27,42.1900313 C18.6241992,42.1900313 11.8099687,35.3759062 11.8099687,27 C11.8099687,18.6240937 18.6241992,11.8099687 27,11.8099687 Z M7.39652344,50.0740312 C5.48279297,50.0740312 3.92596875,48.5171016 3.92596875,46.6034766 C3.92596875,44.6897461 5.48289844,43.1328164 7.39652344,43.1328164 C9.31014844,43.1328164 10.8670781,44.6897461 10.8670781,46.6034766 C10.8670781,48.517207 9.31014844,50.0740312 7.39652344,50.0740312 Z M29.4052148,50.0127539 C29.4052148,51.3390234 28.3261641,52.4179687 27,52.4179687 C25.6738359,52.4179687 24.5947852,51.3390234 24.5947852,50.0127539 C24.5947852,48.6864844 25.6738359,47.6075391 27,47.6075391 C28.3261641,47.6075391 29.4052148,48.6865898 29.4052148,50.0127539 Z" id="Shape"></path>
            </g>
            <path d="M47.5989533,41.4613768 C46.8891162,41.4613768 46.3134824,42.0223062 46.3134824,42.7142904 L46.3134824,45.1434391 C46.3134824,45.8173813 45.7508317,46.3657815 45.0593769,46.3657815 L42.0842829,46.3657815 C41.3744458,46.3657815 40.7988119,46.9267109 40.7988119,47.6186951 L40.7988119,50.2857721 L32.4607331,47.8983454 L32.4607331,37.3686095 C32.535676,33.3985024 35.9043812,30.2254989 39.9888367,30.2866411 C44.0055478,30.3499132 47.2733435,33.5880682 47.2733435,37.5049265 C47.2733435,37.6295914 47.2923685,37.7535045 47.3299042,37.8727819 L48.4607331,41.4615021 L47.5989533,41.4615021 L47.5989533,41.4613768 Z" id="XMLID_111_-path" stroke="#FFFFFF" stroke-width="2"></path>
        </g>
    </g>
</svg>