<?xml version="1.0" encoding="UTF-8"?>
<svg width="80px" height="80px" viewBox="0 0 80 80" version="1.1" xmlns="http://www.w3.org/2000/svg" xmlns:xlink="http://www.w3.org/1999/xlink">
    <title>Group 18</title>
    <g id="Page-1" stroke="none" stroke-width="1" fill="none" fill-rule="evenodd">
        <g id="Group-7" transform="translate(-246.000000, -710.000000)">
            <g id="Group-18" transform="translate(246.000000, 710.000000)">
                <g id="Group-8" transform="translate(0.000000, 0.000000)" fill="#BA9200">
                    <circle id="Oval" cx="40" cy="40" r="40"></circle>
                </g>
                <g id="ear" transform="translate(35.000000, 19.000000)" fill="#FFFFFF" fill-rule="nonzero" stroke="#BA9200" stroke-width="0.5">
                    <path d="M13.5069429,0 C13.5045514,0 13.5023143,0 13.4999229,0 C9.89519143,0 6.50599714,1.4267451 3.95634857,4.01780392 C1.40508,6.61043137 0,10.0580392 0,13.7254902 L0,20.0784314 L2.31428571,20.0784314 L2.31428571,13.7254902 C2.31428571,10.6867451 3.47844857,7.83019608 5.59239429,5.68196078 C7.70510571,3.53498039 10.5129514,2.35294118 13.4999229,2.35294118 C13.5017743,2.35294118 13.5039343,2.35294118 13.5057086,2.35294118 C19.6703486,2.35607843 24.6857143,7.51168627 24.6857143,13.8455686 C24.6857143,20.2312157 22.2399,26.2345882 17.7987857,30.7500392 L12.3376886,36.3023529 C11.48472,37.1694902 10.35072,37.6470588 9.14443714,37.6470588 C6.65442,37.6470588 4.62857143,35.5873725 4.62857143,33.0557647 L4.62857143,31.0588235 L2.31428571,31.0588235 L2.31428571,33.0557647 C2.31428571,36.8848627 5.37832286,40 9.14443714,40 C10.9687886,40 12.68406,39.2777255 13.9740429,37.9660392 L19.43514,32.4137255 C21.8456229,29.962902 23.7293743,27.0967059 25.0339371,23.8945882 C26.3385771,20.692549 27,17.3115294 27,13.8455686 C27,6.21490196 20.9469857,0.00376470588 13.5069429,0 Z" id="Path" transform="translate(13.500000, 20.000000) scale(-1, 1) translate(-13.500000, -20.000000) "></path>
                    <path d="M15.5,6 C13.497425,6 11.6144,6.79713738 10.19795,8.2444984 C8.780525,9.69293291 8,11.6189137 8,13.6677316 L8.001425,13.6677316 C8.0012,13.6867476 8,13.7054569 8,13.7245495 L8,15.8203706 C8,17.409508 8.605325,18.9035655 9.70445,20.0272716 C10.056275,20.3869649 10.25,20.8652013 10.25,21.3738019 C10.25,21.8824026 10.056275,22.360639 9.704525,22.7203323 C8.8955,23.5473738 8.45,24.6470032 8.45,25.8165623 L8.45,26.3961661 C8.45,28.3833355 10.0313,30 11.975,30 L12.05,30 C13.9937,30 15.575,28.3833355 15.575,26.3961661 L13.325,26.3961661 C13.325,27.1149393 12.75305,27.6996805 12.05,27.6996805 L11.975,27.6996805 C11.27195,27.6996805 10.7,27.1149393 10.7,26.3961661 L10.7,25.8165623 C10.7,25.2614185 10.911425,24.739476 11.2955,24.3468882 C12.072275,23.5526645 12.5,22.4968179 12.5,21.3738019 C12.5,20.2507859 12.072275,19.1949393 11.295425,18.4007157 C10.62125,17.7114633 10.25,16.7950927 10.25,15.8203706 L10.25,13.7245495 C10.25,12.4458019 11.24195,11.3885751 12.461,11.3677955 C12.47405,11.3675655 12.48695,11.3674888 12.49985,11.3674888 C13.0943,11.3674888 13.653275,11.6009712 14.077475,12.0276038 C14.511125,12.4635144 14.75,13.0460319 14.75,13.6677316 L17,13.6677316 C17,12.4243323 16.5224,11.2593738 15.655175,10.3873994 C14.87285,9.60084345 13.86125,9.14269649 12.7778,9.07660064 C13.5905,8.57106709 14.525525,8.30031949 15.502775,8.30031949 C18.396125,8.30185304 20.75,10.7622748 20.75,13.7851246 C20.75,16.2368051 20.27165,18.6031438 19.328375,20.8184281 L21.391325,21.736639 C22.458725,19.2299808 23,16.5546326 23,13.7851246 C23,9.49449201 19.6373,6.00214696 15.5,6 Z" id="Path" transform="translate(15.500000, 18.000000) scale(-1, 1) translate(-15.500000, -18.000000) "></path>
                </g>
                <rect id="Rectangle" fill="#FFFFFF" transform="translate(25.000000, 25.200000) rotate(15.000000) translate(-25.000000, -25.200000) " x="19" y="24" width="12" height="2.4" rx="1.2"></rect>
                <rect id="Rectangle" fill="#FFFFFF" transform="translate(28.000000, 54.200000) scale(-1, 1) rotate(35.000000) translate(-28.000000, -54.200000) " x="22" y="53" width="12" height="2.4" rx="1.2"></rect>
                <rect id="Rectangle" fill="#FFFFFF" transform="translate(22.500000, 41.200000) scale(-1, 1) rotate(3.000000) translate(-22.500000, -41.200000) " x="15" y="40" width="15" height="2.4" rx="1.2"></rect>
            </g>
        </g>
    </g>
</svg>