<?xml version="1.0" encoding="UTF-8"?>
<svg width="80px" height="80px" viewBox="0 0 80 80" version="1.1" xmlns="http://www.w3.org/2000/svg" xmlns:xlink="http://www.w3.org/1999/xlink">
    <title>bar-chart</title>
    <g id="Page-1" stroke="none" stroke-width="1" fill="none" fill-rule="evenodd">
        <g id="bar-chart">
            <circle id="Oval" fill="#3DB8EF" cx="40" cy="40" r="40"></circle>
            <rect id="Rectangle" fill="#FFFFFF" fill-rule="nonzero" x="16" y="58.5333333" width="44" height="1.46666667"></rect>
            <path d="M18.9333333,57.0666667 L26.2666667,57.0666667 C26.67165,57.0666667 27,56.7383167 27,56.3333333 L27,43.1333333 C27,42.72835 26.67165,42.4 26.2666667,42.4 L18.9333333,42.4 C18.52835,42.4 18.2,42.72835 18.2,43.1333333 L18.2,56.3333333 C18.2,56.7383167 18.52835,57.0666667 18.9333333,57.0666667 Z M19.6666667,43.8666667 L25.5333333,43.8666667 L25.5333333,55.6 L19.6666667,55.6 L19.6666667,43.8666667 Z" id="Shape" fill="#FFFFFF" fill-rule="nonzero"></path>
            <path d="M39.4666667,57.0666667 L46.8,57.0666667 C47.2049833,57.0666667 47.5333333,56.7383167 47.5333333,56.3333333 L47.5333333,34.3333333 C47.5333333,33.92835 47.2049833,33.6 46.8,33.6 L39.4666667,33.6 C39.0616833,33.6 38.7333333,33.92835 38.7333333,34.3333333 L38.7333333,56.3333333 C38.7333333,56.7383167 39.0616833,57.0666667 39.4666667,57.0666667 Z M40.2,35.0666667 L46.0666667,35.0666667 L46.0666667,55.6 L40.2,55.6 L40.2,35.0666667 Z" id="Shape" fill="#FFFFFF" fill-rule="nonzero"></path>
            <path d="M29.2,57.0666667 L36.5333333,57.0666667 C36.9383167,57.0666667 37.2666667,56.7383167 37.2666667,56.3333333 L37.2666667,25.5333333 C37.2666667,25.12835 36.9383167,24.8 36.5333333,24.8 L29.2,24.8 C28.7950167,24.8 28.4666667,25.12835 28.4666667,25.5333333 L28.4666667,56.3333333 C28.4666667,56.7383167 28.7950167,57.0666667 29.2,57.0666667 Z M29.9333333,26.2666667 L35.8,26.2666667 L35.8,55.6 L29.9333333,55.6 L29.9333333,26.2666667 Z" id="Shape" fill="#FFFFFF" fill-rule="nonzero"></path>
            <path d="M49.7333333,57.0666667 L57.0666667,57.0666667 C57.47165,57.0666667 57.8,56.7383167 57.8,56.3333333 L57.8,16.7333333 C57.8,16.32835 57.47165,16 57.0666667,16 L49.7333333,16 C49.32835,16 49,16.32835 49,16.7333333 L49,56.3333333 C49,56.7383167 49.32835,57.0666667 49.7333333,57.0666667 Z M50.4666667,17.4666667 L56.3333333,17.4666667 L56.3333333,55.6 L50.4666667,55.6 L50.4666667,17.4666667 Z" id="Shape" fill="#FFFFFF" fill-rule="nonzero"></path>
        </g>
    </g>
</svg>