<?xml version="1.0" encoding="UTF-8"?>
<svg width="80px" height="80px" viewBox="0 0 80 80" version="1.1" xmlns="http://www.w3.org/2000/svg" xmlns:xlink="http://www.w3.org/1999/xlink">
    <title>writing</title>
    <g id="Page-1" stroke="none" stroke-width="1" fill="none" fill-rule="evenodd">
        <g id="Group-7" transform="translate(-824.000000, -710.000000)">
            <g id="writing" transform="translate(824.000000, 710.000000)">
                <circle id="Oval" fill="#9B7AE9" cx="40" cy="40" r="40"></circle>
                <path d="M62.3317446,35.2310391 L60.4242716,33.3236191 C59.5332644,32.4325605 58.0835209,32.4327129 57.1924375,33.3236191 L53.1746401,37.3413047 L53.1746401,24.4277344 C53.1746401,22.5376816 51.6369157,21 49.7468103,21 L27.4278298,21 C25.5377244,21 24,22.5376816 24,24.4277344 L24,56.5722656 C24,58.4623184 25.5377244,60 27.4278298,60 L49.7468103,60 C51.6369157,60 53.1746401,58.4623184 53.1746401,56.5722656 L53.1746401,47.5052988 L62.3317446,38.4627832 C63.2227518,37.5718008 63.2227518,36.1220215 62.3317446,35.2310391 Z M48.666206,48.7456816 L45.229083,50.349709 L46.8315554,46.9160332 L55.3611385,38.3866875 L57.2469781,40.2723984 L48.666206,48.7456816 Z M50.8894203,56.5722656 C50.8894203,57.2022832 50.3768454,57.7148438 49.7468103,57.7148438 L27.4278298,57.7148438 C26.7977947,57.7148438 26.2852199,57.2022832 26.2852199,56.5722656 L26.2852199,24.4277344 C26.2852199,23.7977168 26.7977947,23.2851562 27.4278298,23.2851562 L49.7468103,23.2851562 C50.3768454,23.2851562 50.8894203,23.7977168 50.8894203,24.4277344 L50.8894203,39.6264609 C44.5533435,45.9623613 44.9671207,45.5071582 44.8457755,45.7671328 L41.8294376,52.2306211 C41.6262816,52.6660957 41.7171572,53.1820078 42.0568932,53.5217344 C42.3966292,53.8615371 42.9127842,53.952334 43.3480424,53.7491836 L49.8117106,50.7328535 C50.0486879,50.622252 50.087689,50.5535449 50.8894203,49.7618145 L50.8894203,56.5722656 Z M58.872912,38.6667715 L56.9769413,36.7708535 L58.8083926,34.9394531 L60.7152562,36.8474824 L58.872912,38.6667715 Z" id="Shape" fill="#FFFFFF" fill-rule="nonzero"></path>
                <path d="M29.1811024,30 L46.8188976,30 C47.4711811,30 48,29.5522667 48,29 C48,28.4477333 47.4711811,28 46.8188976,28 L29.1811024,28 C28.5288189,28 28,28.4477333 28,29 C28,29.5522667 28.5288189,30 29.1811024,30 Z" id="Path" fill="#FFFFFF" fill-rule="nonzero"></path>
                <path d="M30.1650485,37 L43.8349515,37 C44.4783689,37 45,36.5522667 45,36 C45,35.4477333 44.4783689,35 43.8349515,35 L30.1650485,35 C29.5216311,35 29,35.4477333 29,36 C29,36.5522667 29.5216311,37 30.1650485,37 Z" id="Path" fill="#FFFFFF" fill-rule="nonzero"></path>
                <path d="M39.8607595,41 L30.1392405,41 C29.5100759,41 29,41.4477333 29,42 C29,42.5522667 29.5100759,43 30.1392405,43 L39.8607595,43 C40.4899241,43 41,42.5522667 41,42 C41,41.4477333 40.4899241,41 39.8607595,41 Z" id="Path" fill="#FFFFFF" fill-rule="nonzero"></path>
                <path d="M38.0506329,47 L29.9493671,47 C29.4250633,47 29,47.4477333 29,48 C29,48.5522667 29.4250633,49 29.9493671,49 L38.0506329,49 C38.5749367,49 39,48.5522667 39,48 C39,47.4477333 38.5749367,47 38.0506329,47 Z" id="Path" fill="#FFFFFF" fill-rule="nonzero"></path>
            </g>
        </g>
    </g>
</svg>